<mxfile host="app.diagrams.net" modified="2022-06-22T01:51:08.760Z" agent="5.0 (Windows NT 10.0; Win64; x64) AppleWebKit/537.36 (KHTML, like Gecko) Chrome/102.0.5005.124 Safari/537.36 Edg/102.0.1245.41" etag="s0FslthSeplUFX6mNmWj" version="20.0.1" type="github">
  <diagram id="8CoYTxkmevsLXzp19YlB" name="第 1 页">
    <mxGraphModel dx="1422" dy="762" grid="1" gridSize="10" guides="1" tooltips="1" connect="1" arrows="1" fold="1" page="1" pageScale="1" pageWidth="827" pageHeight="1169" math="0" shadow="0">
      <root>
        <mxCell id="0" />
        <mxCell id="1" parent="0" />
        <mxCell id="c0db9LKpisd4vTzTPGsK-2" value="" style="edgeStyle=orthogonalEdgeStyle;rounded=0;orthogonalLoop=1;jettySize=auto;html=1;fontSize=20;" edge="1" parent="1" source="c0db9LKpisd4vTzTPGsK-4" target="c0db9LKpisd4vTzTPGsK-6">
          <mxGeometry relative="1" as="geometry">
            <Array as="points">
              <mxPoint x="640" y="250" />
            </Array>
          </mxGeometry>
        </mxCell>
        <mxCell id="c0db9LKpisd4vTzTPGsK-3" value="" style="edgeStyle=orthogonalEdgeStyle;rounded=0;orthogonalLoop=1;jettySize=auto;html=1;fontSize=20;" edge="1" parent="1" source="c0db9LKpisd4vTzTPGsK-4" target="c0db9LKpisd4vTzTPGsK-10">
          <mxGeometry relative="1" as="geometry">
            <Array as="points">
              <mxPoint x="640" y="250" />
            </Array>
          </mxGeometry>
        </mxCell>
        <mxCell id="c0db9LKpisd4vTzTPGsK-4" value="案件来源" style="rounded=1;whiteSpace=wrap;html=1;fontSize=12;glass=0;strokeWidth=1;shadow=0;" vertex="1" parent="1">
          <mxGeometry x="580" y="140" width="120" height="40" as="geometry" />
        </mxCell>
        <mxCell id="c0db9LKpisd4vTzTPGsK-5" value="" style="edgeStyle=orthogonalEdgeStyle;rounded=0;orthogonalLoop=1;jettySize=auto;html=1;fontSize=20;" edge="1" parent="1" source="c0db9LKpisd4vTzTPGsK-6" target="c0db9LKpisd4vTzTPGsK-8">
          <mxGeometry relative="1" as="geometry" />
        </mxCell>
        <mxCell id="c0db9LKpisd4vTzTPGsK-6" value="简易程序" style="rounded=1;whiteSpace=wrap;html=1;fontSize=12;glass=0;strokeWidth=1;shadow=0;" vertex="1" parent="1">
          <mxGeometry x="440" y="228" width="120" height="40" as="geometry" />
        </mxCell>
        <mxCell id="c0db9LKpisd4vTzTPGsK-7" value="" style="edgeStyle=orthogonalEdgeStyle;rounded=0;orthogonalLoop=1;jettySize=auto;html=1;fontSize=20;" edge="1" parent="1" source="c0db9LKpisd4vTzTPGsK-8" target="c0db9LKpisd4vTzTPGsK-40">
          <mxGeometry relative="1" as="geometry" />
        </mxCell>
        <mxCell id="c0db9LKpisd4vTzTPGsK-8" value="执法人员&lt;br&gt;出示执法证件" style="rounded=1;whiteSpace=wrap;html=1;fontSize=12;glass=0;strokeWidth=1;shadow=0;" vertex="1" parent="1">
          <mxGeometry x="440" y="317" width="120" height="40" as="geometry" />
        </mxCell>
        <mxCell id="c0db9LKpisd4vTzTPGsK-9" value="" style="edgeStyle=orthogonalEdgeStyle;rounded=0;orthogonalLoop=1;jettySize=auto;html=1;fontSize=20;" edge="1" parent="1" source="c0db9LKpisd4vTzTPGsK-10" target="c0db9LKpisd4vTzTPGsK-12">
          <mxGeometry relative="1" as="geometry" />
        </mxCell>
        <mxCell id="c0db9LKpisd4vTzTPGsK-10" value="一般程序" style="rounded=1;whiteSpace=wrap;html=1;fontSize=12;glass=0;strokeWidth=1;shadow=0;" vertex="1" parent="1">
          <mxGeometry x="720" y="230" width="120" height="40" as="geometry" />
        </mxCell>
        <mxCell id="c0db9LKpisd4vTzTPGsK-11" value="" style="edgeStyle=orthogonalEdgeStyle;rounded=0;orthogonalLoop=1;jettySize=auto;html=1;fontSize=20;" edge="1" parent="1" source="c0db9LKpisd4vTzTPGsK-12" target="c0db9LKpisd4vTzTPGsK-14">
          <mxGeometry relative="1" as="geometry" />
        </mxCell>
        <mxCell id="c0db9LKpisd4vTzTPGsK-12" value="立案" style="rounded=1;whiteSpace=wrap;html=1;fontSize=12;glass=0;strokeWidth=1;shadow=0;" vertex="1" parent="1">
          <mxGeometry x="720" y="317" width="120" height="40" as="geometry" />
        </mxCell>
        <mxCell id="c0db9LKpisd4vTzTPGsK-13" value="" style="edgeStyle=orthogonalEdgeStyle;rounded=0;orthogonalLoop=1;jettySize=auto;html=1;fontSize=20;" edge="1" parent="1" source="c0db9LKpisd4vTzTPGsK-14" target="c0db9LKpisd4vTzTPGsK-16">
          <mxGeometry relative="1" as="geometry" />
        </mxCell>
        <mxCell id="c0db9LKpisd4vTzTPGsK-14" value="调查取证" style="rounded=1;whiteSpace=wrap;html=1;fontSize=12;glass=0;strokeWidth=1;shadow=0;" vertex="1" parent="1">
          <mxGeometry x="720" y="405" width="120" height="40" as="geometry" />
        </mxCell>
        <mxCell id="c0db9LKpisd4vTzTPGsK-15" value="" style="edgeStyle=orthogonalEdgeStyle;rounded=0;orthogonalLoop=1;jettySize=auto;html=1;fontSize=20;" edge="1" parent="1" source="c0db9LKpisd4vTzTPGsK-16" target="c0db9LKpisd4vTzTPGsK-20">
          <mxGeometry relative="1" as="geometry" />
        </mxCell>
        <mxCell id="c0db9LKpisd4vTzTPGsK-16" value="审批" style="rounded=1;whiteSpace=wrap;html=1;fontSize=12;glass=0;strokeWidth=1;shadow=0;" vertex="1" parent="1">
          <mxGeometry x="720" y="493" width="120" height="40" as="geometry" />
        </mxCell>
        <mxCell id="c0db9LKpisd4vTzTPGsK-17" value="" style="edgeStyle=orthogonalEdgeStyle;rounded=0;orthogonalLoop=1;jettySize=auto;html=1;fontSize=20;" edge="1" parent="1" source="c0db9LKpisd4vTzTPGsK-20" target="c0db9LKpisd4vTzTPGsK-24">
          <mxGeometry relative="1" as="geometry" />
        </mxCell>
        <mxCell id="c0db9LKpisd4vTzTPGsK-18" value="" style="edgeStyle=orthogonalEdgeStyle;rounded=0;orthogonalLoop=1;jettySize=auto;html=1;fontSize=20;startArrow=none;" edge="1" parent="1" source="c0db9LKpisd4vTzTPGsK-24" target="c0db9LKpisd4vTzTPGsK-26">
          <mxGeometry relative="1" as="geometry">
            <Array as="points">
              <mxPoint x="780" y="790" />
            </Array>
          </mxGeometry>
        </mxCell>
        <mxCell id="c0db9LKpisd4vTzTPGsK-19" style="edgeStyle=orthogonalEdgeStyle;rounded=0;orthogonalLoop=1;jettySize=auto;html=1;exitX=0.5;exitY=1;exitDx=0;exitDy=0;entryX=1;entryY=0.5;entryDx=0;entryDy=0;fontSize=20;" edge="1" parent="1" source="c0db9LKpisd4vTzTPGsK-20" target="c0db9LKpisd4vTzTPGsK-25">
          <mxGeometry relative="1" as="geometry" />
        </mxCell>
        <mxCell id="c0db9LKpisd4vTzTPGsK-20" value="拟定处罚意见" style="rounded=1;whiteSpace=wrap;html=1;fontSize=12;glass=0;strokeWidth=1;shadow=0;" vertex="1" parent="1">
          <mxGeometry x="720" y="582" width="120" height="40" as="geometry" />
        </mxCell>
        <mxCell id="c0db9LKpisd4vTzTPGsK-21" value="" style="edgeStyle=orthogonalEdgeStyle;rounded=0;orthogonalLoop=1;jettySize=auto;html=1;fontSize=20;entryX=0.5;entryY=0;entryDx=0;entryDy=0;" edge="1" parent="1" source="c0db9LKpisd4vTzTPGsK-24" target="c0db9LKpisd4vTzTPGsK-33">
          <mxGeometry relative="1" as="geometry">
            <mxPoint x="780" y="950" as="targetPoint" />
          </mxGeometry>
        </mxCell>
        <mxCell id="c0db9LKpisd4vTzTPGsK-25" value="撤销立案" style="rounded=1;whiteSpace=wrap;html=1;fontSize=12;glass=0;strokeWidth=1;shadow=0;" vertex="1" parent="1">
          <mxGeometry x="600" y="670" width="120" height="40" as="geometry" />
        </mxCell>
        <mxCell id="c0db9LKpisd4vTzTPGsK-26" value="移送处理" style="rounded=1;whiteSpace=wrap;html=1;fontSize=12;glass=0;strokeWidth=1;shadow=0;" vertex="1" parent="1">
          <mxGeometry x="840" y="670" width="120" height="40" as="geometry" />
        </mxCell>
        <mxCell id="c0db9LKpisd4vTzTPGsK-56" style="edgeStyle=orthogonalEdgeStyle;rounded=0;orthogonalLoop=1;jettySize=auto;html=1;entryX=0.5;entryY=0;entryDx=0;entryDy=0;" edge="1" parent="1" source="c0db9LKpisd4vTzTPGsK-28" target="c0db9LKpisd4vTzTPGsK-33">
          <mxGeometry relative="1" as="geometry" />
        </mxCell>
        <mxCell id="c0db9LKpisd4vTzTPGsK-28" value="听取当事人陈述和申辩" style="rounded=1;whiteSpace=wrap;html=1;fontSize=12;glass=0;strokeWidth=1;shadow=0;" vertex="1" parent="1">
          <mxGeometry x="600" y="840" width="120" height="40" as="geometry" />
        </mxCell>
        <mxCell id="c0db9LKpisd4vTzTPGsK-55" style="edgeStyle=orthogonalEdgeStyle;rounded=0;orthogonalLoop=1;jettySize=auto;html=1;entryX=0.5;entryY=0;entryDx=0;entryDy=0;" edge="1" parent="1" source="c0db9LKpisd4vTzTPGsK-30" target="c0db9LKpisd4vTzTPGsK-33">
          <mxGeometry relative="1" as="geometry" />
        </mxCell>
        <mxCell id="c0db9LKpisd4vTzTPGsK-30" value="重大处罚依申请召开听证会" style="rounded=1;whiteSpace=wrap;html=1;fontSize=12;glass=0;strokeWidth=1;shadow=0;" vertex="1" parent="1">
          <mxGeometry x="840" y="840" width="120" height="40" as="geometry" />
        </mxCell>
        <mxCell id="c0db9LKpisd4vTzTPGsK-31" value="" style="edgeStyle=orthogonalEdgeStyle;rounded=0;orthogonalLoop=1;jettySize=auto;html=1;fontSize=20;" edge="1" parent="1" source="c0db9LKpisd4vTzTPGsK-33" target="c0db9LKpisd4vTzTPGsK-35">
          <mxGeometry relative="1" as="geometry" />
        </mxCell>
        <mxCell id="c0db9LKpisd4vTzTPGsK-33" value="处罚决定审批" style="rounded=1;whiteSpace=wrap;html=1;fontSize=12;glass=0;strokeWidth=1;shadow=0;" vertex="1" parent="1">
          <mxGeometry x="720" y="930" width="120" height="40" as="geometry" />
        </mxCell>
        <mxCell id="c0db9LKpisd4vTzTPGsK-36" value="" style="edgeStyle=orthogonalEdgeStyle;rounded=0;orthogonalLoop=1;jettySize=auto;html=1;fontSize=20;" edge="1" parent="1" source="c0db9LKpisd4vTzTPGsK-37" target="c0db9LKpisd4vTzTPGsK-38">
          <mxGeometry relative="1" as="geometry" />
        </mxCell>
        <mxCell id="c0db9LKpisd4vTzTPGsK-37" value="送达执行" style="rounded=1;whiteSpace=wrap;html=1;fontSize=12;glass=0;strokeWidth=1;shadow=0;" vertex="1" parent="1">
          <mxGeometry x="720" y="1110" width="120" height="40" as="geometry" />
        </mxCell>
        <mxCell id="c0db9LKpisd4vTzTPGsK-38" value="结案归档" style="rounded=1;whiteSpace=wrap;html=1;fontSize=12;glass=0;strokeWidth=1;shadow=0;" vertex="1" parent="1">
          <mxGeometry x="720" y="1200" width="120" height="40" as="geometry" />
        </mxCell>
        <mxCell id="c0db9LKpisd4vTzTPGsK-39" value="" style="edgeStyle=orthogonalEdgeStyle;rounded=0;orthogonalLoop=1;jettySize=auto;html=1;fontSize=20;" edge="1" parent="1" source="c0db9LKpisd4vTzTPGsK-40" target="c0db9LKpisd4vTzTPGsK-42">
          <mxGeometry relative="1" as="geometry" />
        </mxCell>
        <mxCell id="c0db9LKpisd4vTzTPGsK-40" value="告知拟处罚的事实、理由、依据和陈述申辩的权利" style="rounded=1;whiteSpace=wrap;html=1;fontSize=12;glass=0;strokeWidth=1;shadow=0;" vertex="1" parent="1">
          <mxGeometry x="440" y="405" width="120" height="40" as="geometry" />
        </mxCell>
        <mxCell id="c0db9LKpisd4vTzTPGsK-41" value="" style="edgeStyle=orthogonalEdgeStyle;rounded=0;orthogonalLoop=1;jettySize=auto;html=1;fontSize=20;" edge="1" parent="1" source="c0db9LKpisd4vTzTPGsK-42" target="c0db9LKpisd4vTzTPGsK-44">
          <mxGeometry relative="1" as="geometry" />
        </mxCell>
        <mxCell id="c0db9LKpisd4vTzTPGsK-42" value="填写预订格式的行政处罚决定书" style="rounded=1;whiteSpace=wrap;html=1;fontSize=12;glass=0;strokeWidth=1;shadow=0;" vertex="1" parent="1">
          <mxGeometry x="440" y="493" width="120" height="40" as="geometry" />
        </mxCell>
        <mxCell id="c0db9LKpisd4vTzTPGsK-43" value="" style="edgeStyle=orthogonalEdgeStyle;rounded=0;orthogonalLoop=1;jettySize=auto;html=1;fontSize=20;" edge="1" parent="1" source="c0db9LKpisd4vTzTPGsK-44" target="c0db9LKpisd4vTzTPGsK-45">
          <mxGeometry relative="1" as="geometry" />
        </mxCell>
        <mxCell id="c0db9LKpisd4vTzTPGsK-44" value="当场送达依法执行" style="rounded=1;whiteSpace=wrap;html=1;fontSize=12;glass=0;strokeWidth=1;shadow=0;" vertex="1" parent="1">
          <mxGeometry x="440" y="582" width="120" height="40" as="geometry" />
        </mxCell>
        <mxCell id="c0db9LKpisd4vTzTPGsK-45" value="备案归档" style="rounded=1;whiteSpace=wrap;html=1;fontSize=12;glass=0;strokeWidth=1;shadow=0;" vertex="1" parent="1">
          <mxGeometry x="440" y="670" width="120" height="40" as="geometry" />
        </mxCell>
        <mxCell id="c0db9LKpisd4vTzTPGsK-46" style="edgeStyle=orthogonalEdgeStyle;rounded=0;orthogonalLoop=1;jettySize=auto;html=1;entryX=1;entryY=0.5;entryDx=0;entryDy=0;fontSize=20;exitX=1;exitY=0.5;exitDx=0;exitDy=0;" edge="1" parent="1" source="c0db9LKpisd4vTzTPGsK-33" target="c0db9LKpisd4vTzTPGsK-20">
          <mxGeometry relative="1" as="geometry">
            <Array as="points">
              <mxPoint x="1000" y="950" />
              <mxPoint x="1000" y="602" />
            </Array>
            <mxPoint x="960" y="1210" as="sourcePoint" />
          </mxGeometry>
        </mxCell>
        <mxCell id="c0db9LKpisd4vTzTPGsK-49" value="当事人的事实、理由或证据成立，行政机关改变原拟作出的行政处罚决定" style="text;html=1;strokeColor=none;fillColor=none;align=center;verticalAlign=middle;whiteSpace=wrap;rounded=0;" vertex="1" parent="1">
          <mxGeometry x="1000" y="730" width="60" height="220" as="geometry" />
        </mxCell>
        <mxCell id="c0db9LKpisd4vTzTPGsK-53" style="edgeStyle=orthogonalEdgeStyle;rounded=0;orthogonalLoop=1;jettySize=auto;html=1;entryX=0.442;entryY=-0.025;entryDx=0;entryDy=0;entryPerimeter=0;" edge="1" parent="1" source="c0db9LKpisd4vTzTPGsK-24" target="c0db9LKpisd4vTzTPGsK-28">
          <mxGeometry relative="1" as="geometry" />
        </mxCell>
        <mxCell id="c0db9LKpisd4vTzTPGsK-54" style="edgeStyle=orthogonalEdgeStyle;rounded=0;orthogonalLoop=1;jettySize=auto;html=1;" edge="1" parent="1" source="c0db9LKpisd4vTzTPGsK-24" target="c0db9LKpisd4vTzTPGsK-30">
          <mxGeometry relative="1" as="geometry" />
        </mxCell>
        <mxCell id="c0db9LKpisd4vTzTPGsK-24" value="处罚告知" style="rounded=1;whiteSpace=wrap;html=1;fontSize=12;glass=0;strokeWidth=1;shadow=0;" vertex="1" parent="1">
          <mxGeometry x="720" y="750" width="120" height="40" as="geometry" />
        </mxCell>
        <mxCell id="c0db9LKpisd4vTzTPGsK-50" value="" style="edgeStyle=orthogonalEdgeStyle;rounded=0;orthogonalLoop=1;jettySize=auto;html=1;fontSize=20;endArrow=none;" edge="1" parent="1" source="c0db9LKpisd4vTzTPGsK-20" target="c0db9LKpisd4vTzTPGsK-24">
          <mxGeometry relative="1" as="geometry">
            <Array as="points" />
            <mxPoint x="780" y="622" as="sourcePoint" />
            <mxPoint x="900" y="710" as="targetPoint" />
          </mxGeometry>
        </mxCell>
        <mxCell id="c0db9LKpisd4vTzTPGsK-51" style="edgeStyle=orthogonalEdgeStyle;rounded=0;orthogonalLoop=1;jettySize=auto;html=1;exitX=0.5;exitY=1;exitDx=0;exitDy=0;" edge="1" parent="1" source="c0db9LKpisd4vTzTPGsK-35" target="c0db9LKpisd4vTzTPGsK-35">
          <mxGeometry relative="1" as="geometry" />
        </mxCell>
        <mxCell id="c0db9LKpisd4vTzTPGsK-57" style="edgeStyle=orthogonalEdgeStyle;rounded=0;orthogonalLoop=1;jettySize=auto;html=1;entryX=0.5;entryY=0;entryDx=0;entryDy=0;" edge="1" parent="1" source="c0db9LKpisd4vTzTPGsK-35" target="c0db9LKpisd4vTzTPGsK-37">
          <mxGeometry relative="1" as="geometry" />
        </mxCell>
        <mxCell id="c0db9LKpisd4vTzTPGsK-35" value="依法制作处罚决定" style="rounded=1;whiteSpace=wrap;html=1;fontSize=12;glass=0;strokeWidth=1;shadow=0;" vertex="1" parent="1">
          <mxGeometry x="720" y="1020" width="120" height="40" as="geometry" />
        </mxCell>
      </root>
    </mxGraphModel>
  </diagram>
</mxfile>
